# xmcd
#
# Track frame offsets: 
#        150
#        12354
#        27084
#        36559
#        45639
#        51348
#        69611
#        83616
#        99269
#        132426
#        144675
#        178449
#        196809
#        212338
#        230245
#        246052
#        259649
#        278235
#        287320
#        293097
#        298122
#        305700
#        309909
#        314547
#        321534
#        329247
#        333580
#        339878
#
# Disc length: 4611 seconds
#
# Revision: 3
# Processed by: cddbd v1.5.2PL0 Copyright (c) Steve Scherf et al.
# Submitted via: ExactAudioCopy v1.0b6
#
DISCID=b812011c
DTITLE=Johann Sebastian Bach - Complete Works for Organ (Marie-Claire 
DTITLE=Alain) - Disc 7
DYEAR=1986
DGENRE=Classical
TTITLE0=Trio in G minor (BWV 584)
TTITLE1=Concerto in G major (BWV 592) - I. (Allegro)  
TTITLE2=Concerto in G major (BWV 592) - II. Grave
TTITLE3=Concerto in G major (BWV 592) - III. Presto
TTITLE4=Concerto in D minor (BWV 596) - I.  (Allegro-moderato)  
TTITLE5=Concerto in D minor (BWV 596) - II. Grave - Fuga
TTITLE6=Concerto in D minor (BWV 596) - III. Largo
TTITLE7=Concerto in D minor (BWV 596) - IV. Finale
TTITLE8=Concerto in C major (BWV 594) - I. (Allegro),
TTITLE9=Concerto in C major (BWV 594) - II. Recitativo: Adagio
TTITLE10=Concerto in C major (BWV 594) - III. Allegro
TTITLE11=Concerto in A minor (BWV 593) - I. (Allegro)
TTITLE12=Concerto in A minor (BWV 593) - II. Adagio
TTITLE13=Concerto in A minor (BWV 593) - III. Allegro
TTITLE14=Concerto in E flat major (BWV 597) - I. (Allegro)  
TTITLE15=Concerto in E flat major (BWV 597) - II. Gigue
TTITLE16=Concerto in C major (BWV 595)
TTITLE17=Pedal-Exercitium (BWV 598)
TTITLE18=Das Orgel-Büchlein - Nun komm' der Heiden Heiland (BWV 599)
TTITLE19=Das Orgel-Büchlein - Gott, durch deine Güte (BWV 600)
TTITLE20=Das Orgel-Büchlein - Herr Christ, der ein'ge Gottes-Sohn (BWV
TTITLE20=601)
TTITLE21=Das Orgel-Büchlein - Lob sei dem allmächtigen Gott (BWV 602)
TTITLE22=Das Orgel-Büchlein - Puer natus in Bethlehem (BWV 603)
TTITLE23=Das Orgel-Büchlein - Gelobet seist du, Jesu Christ (BWV 604)
TTITLE24=Das Orgel-Büchlein - Der Tag, der ist so freudenreich (BWV 60
TTITLE24=5)
TTITLE25=Das Orgel-Büchlein - Vom Himmel hoch, da komm' ich her (BWV 6
TTITLE25=06)
TTITLE26=Das Orgel-Büchlein - Vom Himmel kam der Engel Schar (BWV 607)
TTITLE27=Das Orgel-Büchlein - In dulci jubilo (BWV 608)
EXTD=
EXTT0=
EXTT1=
EXTT2=
EXTT3=
EXTT4=
EXTT5=
EXTT6=
EXTT7=
EXTT8=
EXTT9=
EXTT10=
EXTT11=
EXTT12=
EXTT13=
EXTT14=
EXTT15=
EXTT16=
EXTT17=
EXTT18=
EXTT19=
EXTT20=
EXTT21=
EXTT22=
EXTT23=
EXTT24=
EXTT25=
EXTT26=
EXTT27=
PLAYORDER=
